<svg width="1274" height="401" viewBox="0 0 1274 401" fill="none" xmlns="http://www.w3.org/2000/svg">
<g clip-path="url(#clip0_308_3616)">
<rect width="1274" height="401" fill="url(#paint0_linear_308_3616)"/>
<circle cx="27" cy="106" r="4" fill="#505266"/>
<circle cx="171" cy="300" r="4" fill="#505266"/>
<circle cx="319" cy="106" r="4" fill="#505266"/>
<circle cx="269.5" cy="234.5" r="1.5" fill="#505266"/>
<circle cx="176.5" cy="157.5" r="1.5" fill="#505266"/>
<circle cx="259.5" cy="359.5" r="1.5" fill="#505266"/>
<circle cx="41.5" cy="219.5" r="1.5" fill="#505266"/>
<circle cx="485.5" cy="209.5" r="1.5" fill="#505266"/>
<circle cx="189.5" cy="72.4999" r="1.5" fill="#505266"/>
<circle cx="378.5" cy="294.5" r="1.5" fill="#505266"/>
<circle cx="346.5" cy="206.5" r="1.5" fill="#505266"/>
<circle cx="346.5" cy="206.5" r="1.5" fill="#505266"/>
<circle cx="385.635" cy="145.613" r="4" transform="rotate(-40 385.635 145.613)" fill="#505266"/>
<circle cx="677.635" cy="145.613" r="4" transform="rotate(-40 677.635 145.613)" fill="#505266"/>
<circle cx="535.135" cy="197.113" r="1.5" transform="rotate(-40 535.135 197.113)" fill="#505266"/>
<circle cx="618.135" cy="399.113" r="1.5" transform="rotate(-40 618.135 399.113)" fill="#505266"/>
<circle cx="844.135" cy="249.113" r="1.5" transform="rotate(-40 844.135 249.113)" fill="#505266"/>
<circle cx="548.135" cy="112.113" r="1.5" transform="rotate(-40 548.135 112.113)" fill="#505266"/>
<circle cx="705.135" cy="246.113" r="1.5" transform="rotate(-40 705.135 246.113)" fill="#505266"/>
<circle cx="705.135" cy="246.113" r="1.5" transform="rotate(-40 705.135 246.113)" fill="#505266"/>
<circle cx="821.635" cy="41.613" r="4" transform="rotate(-40 821.635 41.613)" fill="#505266"/>
<circle cx="965.635" cy="235.613" r="4" transform="rotate(-40 965.635 235.613)" fill="#505266"/>
<circle cx="1113.64" cy="41.613" r="4" transform="rotate(-40 1113.64 41.613)" fill="#505266"/>
<circle cx="1209.64" cy="321.613" r="4" transform="rotate(-40 1209.64 321.613)" fill="#505266"/>
<circle cx="1064.14" cy="170.113" r="1.5" transform="rotate(-40 1064.14 170.113)" fill="#505266"/>
<circle cx="971.135" cy="93.113" r="1.5" transform="rotate(-40 971.135 93.113)" fill="#505266"/>
<circle cx="1054.14" cy="295.113" r="1.5" transform="rotate(-40 1054.14 295.113)" fill="#505266"/>
<circle cx="836.135" cy="155.113" r="1.5" transform="rotate(-40 836.135 155.113)" fill="#505266"/>
<circle cx="984.135" cy="8.11323" r="1.5" transform="rotate(-40 984.135 8.11323)" fill="#505266"/>
<circle cx="1173.14" cy="230.113" r="1.5" transform="rotate(-40 1173.14 230.113)" fill="#505266"/>
<circle cx="1141.14" cy="142.113" r="1.5" transform="rotate(-40 1141.14 142.113)" fill="#505266"/>
<circle cx="1141.14" cy="142.113" r="1.5" transform="rotate(-40 1141.14 142.113)" fill="#505266"/>
<circle cx="851.135" cy="392.113" r="1.5" transform="rotate(-40 851.135 392.113)" fill="#505266"/>
<path d="M93.4645 288.913C93.294 287.195 92.5625 285.859 91.2699 284.908C89.9773 283.956 88.223 283.48 86.0071 283.48C84.5014 283.48 83.2301 283.693 82.1932 284.119C81.1563 284.531 80.3608 285.107 79.8068 285.845C79.267 286.584 78.9972 287.422 78.9972 288.359C78.9688 289.141 79.1321 289.822 79.4872 290.405C79.8565 290.987 80.3608 291.491 81 291.918C81.6392 292.33 82.3778 292.692 83.2159 293.004C84.054 293.303 84.9489 293.558 85.9006 293.771L89.821 294.709C91.7244 295.135 93.4716 295.703 95.0625 296.413C96.6534 297.124 98.0313 297.997 99.196 299.034C100.361 300.071 101.263 301.293 101.902 302.699C102.555 304.105 102.889 305.717 102.903 307.536C102.889 310.206 102.207 312.521 100.858 314.482C99.5227 316.428 97.5909 317.94 95.0625 319.02C92.5483 320.085 89.5156 320.618 85.9645 320.618C82.4418 320.618 79.3736 320.078 76.7599 318.999C74.1605 317.919 72.1293 316.321 70.6662 314.205C69.2173 312.074 68.4574 309.439 68.3864 306.3H77.3139C77.4134 307.763 77.8324 308.984 78.571 309.964C79.3239 310.93 80.3253 311.662 81.5753 312.159C82.8395 312.642 84.267 312.884 85.858 312.884C87.4205 312.884 88.777 312.656 89.9276 312.202C91.0923 311.747 91.9943 311.115 92.6335 310.305C93.2727 309.496 93.5923 308.565 93.5923 307.514C93.5923 306.534 93.3011 305.71 92.7188 305.043C92.1506 304.375 91.3125 303.807 90.2045 303.338C89.1108 302.869 87.7685 302.443 86.1776 302.06L81.4261 300.866C77.7472 299.972 74.8423 298.572 72.7116 296.669C70.581 294.766 69.5227 292.202 69.5369 288.977C69.5227 286.335 70.2259 284.027 71.6463 282.053C73.081 280.078 75.0483 278.537 77.5483 277.429C80.0483 276.321 82.8892 275.767 86.071 275.767C89.3097 275.767 92.1364 276.321 94.5511 277.429C96.9801 278.537 98.8693 280.078 100.219 282.053C101.568 284.027 102.264 286.314 102.307 288.913H93.4645ZM118.015 301.08V320H108.939V276.364H117.76V293.047H118.143C118.882 291.115 120.075 289.602 121.723 288.509C123.37 287.401 125.437 286.847 127.923 286.847C130.196 286.847 132.177 287.344 133.868 288.338C135.572 289.318 136.893 290.732 137.831 292.578C138.782 294.411 139.251 296.605 139.237 299.162V320H130.16V300.781C130.174 298.764 129.663 297.195 128.626 296.072C127.603 294.95 126.169 294.389 124.322 294.389C123.086 294.389 121.993 294.652 121.041 295.178C120.103 295.703 119.365 296.47 118.825 297.479C118.299 298.473 118.029 299.673 118.015 301.08ZM155.712 320.618C153.624 320.618 151.763 320.256 150.13 319.531C148.496 318.793 147.204 317.706 146.252 316.271C145.315 314.822 144.846 313.018 144.846 310.859C144.846 309.041 145.18 307.514 145.847 306.278C146.515 305.043 147.424 304.048 148.575 303.295C149.725 302.543 151.032 301.974 152.495 301.591C153.972 301.207 155.521 300.938 157.14 300.781C159.043 300.582 160.577 300.398 161.742 300.227C162.907 300.043 163.752 299.773 164.278 299.418C164.803 299.062 165.066 298.537 165.066 297.841V297.713C165.066 296.364 164.64 295.32 163.788 294.581C162.95 293.842 161.756 293.473 160.208 293.473C158.575 293.473 157.275 293.835 156.309 294.56C155.343 295.27 154.704 296.165 154.391 297.244L145.996 296.562C146.423 294.574 147.261 292.855 148.511 291.406C149.761 289.943 151.373 288.821 153.347 288.04C155.336 287.244 157.637 286.847 160.251 286.847C162.069 286.847 163.809 287.06 165.471 287.486C167.147 287.912 168.631 288.572 169.924 289.467C171.231 290.362 172.261 291.513 173.013 292.919C173.766 294.311 174.143 295.98 174.143 297.926V320H165.535V315.462H165.279C164.754 316.484 164.05 317.386 163.17 318.168C162.289 318.935 161.231 319.538 159.995 319.979C158.759 320.405 157.332 320.618 155.712 320.618ZM158.312 314.354C159.647 314.354 160.826 314.091 161.849 313.565C162.871 313.026 163.674 312.301 164.256 311.392C164.839 310.483 165.13 309.453 165.13 308.303V304.83C164.846 305.014 164.455 305.185 163.958 305.341C163.475 305.483 162.928 305.618 162.317 305.746C161.707 305.859 161.096 305.966 160.485 306.065C159.874 306.151 159.32 306.229 158.823 306.3C157.758 306.456 156.827 306.705 156.032 307.045C155.237 307.386 154.619 307.848 154.178 308.43C153.738 308.999 153.518 309.709 153.518 310.561C153.518 311.797 153.965 312.741 154.86 313.395C155.769 314.034 156.92 314.354 158.312 314.354ZM193.244 320.533C190.759 320.533 188.507 319.893 186.49 318.615C184.487 317.322 182.896 315.426 181.717 312.926C180.553 310.412 179.97 307.33 179.97 303.679C179.97 299.929 180.574 296.811 181.781 294.325C182.989 291.825 184.594 289.957 186.597 288.722C188.614 287.472 190.822 286.847 193.223 286.847C195.055 286.847 196.582 287.159 197.804 287.784C199.04 288.395 200.034 289.162 200.787 290.085C201.554 290.994 202.136 291.889 202.534 292.77H202.811V276.364H211.866V320H202.918V314.759H202.534C202.108 315.668 201.504 316.57 200.723 317.464C199.956 318.345 198.955 319.077 197.719 319.659C196.497 320.241 195.006 320.533 193.244 320.533ZM196.121 313.31C197.584 313.31 198.82 312.912 199.828 312.116C200.851 311.307 201.632 310.178 202.172 308.729C202.726 307.28 203.003 305.582 203.003 303.636C203.003 301.69 202.733 300 202.193 298.565C201.653 297.131 200.872 296.023 199.849 295.241C198.827 294.46 197.584 294.07 196.121 294.07C194.629 294.07 193.372 294.474 192.349 295.284C191.327 296.094 190.553 297.216 190.027 298.651C189.501 300.085 189.239 301.747 189.239 303.636C189.239 305.54 189.501 307.223 190.027 308.686C190.567 310.135 191.341 311.271 192.349 312.095C193.372 312.905 194.629 313.31 196.121 313.31ZM234.116 320.639C230.806 320.639 227.944 319.936 225.529 318.53C223.129 317.109 221.275 315.135 219.968 312.607C218.662 310.064 218.008 307.116 218.008 303.764C218.008 300.384 218.662 297.429 219.968 294.901C221.275 292.358 223.129 290.384 225.529 288.977C227.944 287.557 230.806 286.847 234.116 286.847C237.426 286.847 240.281 287.557 242.681 288.977C245.096 290.384 246.957 292.358 248.264 294.901C249.571 297.429 250.224 300.384 250.224 303.764C250.224 307.116 249.571 310.064 248.264 312.607C246.957 315.135 245.096 317.109 242.681 318.53C240.281 319.936 237.426 320.639 234.116 320.639ZM234.159 313.608C235.664 313.608 236.922 313.182 237.93 312.33C238.939 311.463 239.699 310.284 240.21 308.793C240.735 307.301 240.998 305.604 240.998 303.7C240.998 301.797 240.735 300.099 240.21 298.608C239.699 297.116 238.939 295.937 237.93 295.071C236.922 294.205 235.664 293.771 234.159 293.771C232.639 293.771 231.36 294.205 230.324 295.071C229.301 295.937 228.527 297.116 228.001 298.608C227.49 300.099 227.234 301.797 227.234 303.7C227.234 305.604 227.49 307.301 228.001 308.793C228.527 310.284 229.301 311.463 230.324 312.33C231.36 313.182 232.639 313.608 234.159 313.608ZM261.762 320L252.855 287.273H262.039L267.11 309.261H267.408L272.692 287.273H281.705L287.074 309.134H287.351L292.337 287.273H301.499L292.614 320H283.005L277.38 299.418H276.975L271.35 320H261.762ZM358.9 291.641H349.567C349.397 290.433 349.049 289.361 348.523 288.423C347.998 287.472 347.323 286.662 346.499 285.994C345.675 285.327 344.723 284.815 343.644 284.46C342.578 284.105 341.421 283.928 340.171 283.928C337.912 283.928 335.945 284.489 334.269 285.611C332.593 286.719 331.293 288.338 330.37 290.469C329.446 292.585 328.985 295.156 328.985 298.182C328.985 301.293 329.446 303.906 330.37 306.023C331.307 308.139 332.614 309.737 334.29 310.817C335.966 311.896 337.905 312.436 340.107 312.436C341.343 312.436 342.486 312.273 343.537 311.946C344.603 311.619 345.547 311.143 346.371 310.518C347.195 309.879 347.877 309.105 348.417 308.196C348.971 307.287 349.354 306.25 349.567 305.085L358.9 305.128C358.658 307.131 358.054 309.062 357.088 310.923C356.137 312.77 354.851 314.425 353.232 315.888C351.627 317.337 349.709 318.487 347.479 319.339C345.263 320.178 342.756 320.597 339.958 320.597C336.066 320.597 332.586 319.716 329.517 317.955C326.463 316.193 324.049 313.643 322.273 310.305C320.512 306.967 319.631 302.926 319.631 298.182C319.631 293.423 320.526 289.375 322.316 286.037C324.105 282.699 326.534 280.156 329.603 278.409C332.671 276.648 336.123 275.767 339.958 275.767C342.486 275.767 344.83 276.122 346.989 276.832C349.162 277.543 351.087 278.58 352.763 279.943C354.439 281.293 355.803 282.947 356.854 284.908C357.919 286.868 358.601 289.112 358.9 291.641ZM386.332 306.065V287.273H395.409V320H386.694V314.055H386.353C385.615 315.973 384.386 317.514 382.667 318.679C380.963 319.844 378.882 320.426 376.424 320.426C374.237 320.426 372.312 319.929 370.65 318.935C368.988 317.94 367.689 316.527 366.751 314.695C365.828 312.862 365.359 310.668 365.345 308.111V287.273H374.422V306.491C374.436 308.423 374.954 309.95 375.977 311.072C377 312.195 378.37 312.756 380.089 312.756C381.183 312.756 382.206 312.507 383.157 312.01C384.109 311.499 384.876 310.746 385.458 309.751C386.055 308.757 386.346 307.528 386.332 306.065ZM420.077 287.273V294.091H400.368V287.273H420.077ZM404.842 279.432H413.919V309.943C413.919 310.781 414.047 311.435 414.303 311.903C414.558 312.358 414.913 312.678 415.368 312.862C415.837 313.047 416.376 313.139 416.987 313.139C417.413 313.139 417.839 313.104 418.266 313.033C418.692 312.947 419.018 312.884 419.246 312.841L420.673 319.595C420.219 319.737 419.58 319.901 418.756 320.085C417.932 320.284 416.93 320.405 415.751 320.447C413.564 320.533 411.646 320.241 409.999 319.574C408.365 318.906 407.094 317.869 406.185 316.463C405.276 315.057 404.828 313.281 404.842 311.136V279.432Z" fill="white"/>
<path d="M66 331.932H422.357V336.023H66V331.932Z" fill="white"/>
<path d="M1161.91 373.835C1160.47 373.835 1159.19 373.636 1158.07 373.239C1156.96 372.846 1156.02 372.266 1155.27 371.499C1154.51 370.732 1153.94 369.792 1153.55 368.679C1153.16 367.566 1152.97 366.293 1152.97 364.858C1152.97 363.471 1153.16 362.23 1153.56 361.136C1153.95 360.043 1154.53 359.115 1155.28 358.352C1156.04 357.585 1156.96 357 1158.04 356.598C1159.12 356.196 1160.35 355.994 1161.72 355.994C1163.05 355.994 1164.21 356.212 1165.21 356.648C1166.21 357.079 1167.05 357.663 1167.72 358.402C1168.4 359.136 1168.91 359.962 1169.24 360.881C1169.59 361.799 1169.76 362.746 1169.76 363.722C1169.76 364.408 1169.72 365.104 1169.66 365.81C1169.59 366.515 1169.45 367.164 1169.24 367.756C1169.02 368.343 1168.7 368.816 1168.25 369.176C1167.81 369.536 1167.21 369.716 1166.46 369.716C1166.13 369.716 1165.76 369.664 1165.37 369.56C1164.97 369.455 1164.62 369.283 1164.31 369.041C1164 368.8 1163.82 368.475 1163.76 368.068H1163.68C1163.56 368.343 1163.39 368.603 1163.15 368.849C1162.92 369.096 1162.61 369.292 1162.23 369.439C1161.86 369.586 1161.4 369.65 1160.86 369.631C1160.25 369.607 1159.71 369.47 1159.24 369.219C1158.77 368.963 1158.38 368.617 1158.06 368.182C1157.75 367.741 1157.51 367.232 1157.35 366.655C1157.19 366.072 1157.11 365.445 1157.11 364.773C1157.11 364.134 1157.21 363.549 1157.4 363.018C1157.59 362.488 1157.85 362.024 1158.19 361.626C1158.53 361.229 1158.92 360.911 1159.38 360.675C1159.84 360.433 1160.33 360.284 1160.86 360.227C1161.34 360.18 1161.77 360.201 1162.16 360.291C1162.54 360.376 1162.86 360.507 1163.12 360.682C1163.37 360.852 1163.52 361.042 1163.59 361.25H1163.68V360.455H1165.18V366.875C1165.18 367.273 1165.29 367.623 1165.52 367.926C1165.74 368.229 1166.06 368.381 1166.49 368.381C1166.97 368.381 1167.34 368.215 1167.6 367.884C1167.86 367.552 1168.03 367.041 1168.13 366.349C1168.23 365.658 1168.28 364.773 1168.28 363.693C1168.28 363.059 1168.19 362.434 1168.02 361.818C1167.85 361.198 1167.58 360.618 1167.23 360.078C1166.89 359.538 1166.45 359.062 1165.92 358.651C1165.39 358.239 1164.77 357.917 1164.05 357.685C1163.34 357.448 1162.54 357.33 1161.63 357.33C1160.52 357.33 1159.52 357.502 1158.64 357.848C1157.76 358.189 1157.02 358.688 1156.4 359.347C1155.79 360 1155.33 360.795 1155 361.733C1154.69 362.666 1154.53 363.726 1154.53 364.915C1154.53 366.122 1154.69 367.195 1155 368.132C1155.33 369.07 1155.8 369.86 1156.42 370.504C1157.05 371.148 1157.83 371.636 1158.76 371.967C1159.69 372.304 1160.76 372.472 1161.97 372.472C1162.49 372.472 1163.01 372.422 1163.51 372.322C1164.02 372.223 1164.47 372.114 1164.86 371.996C1165.24 371.877 1165.52 371.79 1165.69 371.733L1166.09 373.04C1165.8 373.163 1165.41 373.286 1164.94 373.409C1164.47 373.532 1163.97 373.634 1163.43 373.714C1162.9 373.795 1162.4 373.835 1161.91 373.835ZM1161.09 368.182C1161.73 368.182 1162.24 368.054 1162.63 367.798C1163.03 367.543 1163.31 367.157 1163.49 366.641C1163.67 366.125 1163.76 365.473 1163.76 364.688C1163.76 363.892 1163.66 363.272 1163.46 362.827C1163.26 362.382 1162.97 362.069 1162.58 361.889C1162.19 361.709 1161.72 361.619 1161.15 361.619C1160.61 361.619 1160.15 361.761 1159.76 362.045C1159.38 362.325 1159.09 362.699 1158.89 363.168C1158.69 363.632 1158.59 364.138 1158.59 364.688C1158.59 365.294 1158.67 365.864 1158.83 366.399C1158.99 366.929 1159.26 367.36 1159.62 367.692C1159.99 368.018 1160.48 368.182 1161.09 368.182ZM1179.99 361.534L1178.49 361.96C1178.39 361.709 1178.25 361.465 1178.07 361.229C1177.89 360.987 1177.64 360.788 1177.33 360.632C1177.02 360.476 1176.62 360.398 1176.13 360.398C1175.46 360.398 1174.9 360.552 1174.46 360.859C1174.02 361.162 1173.8 361.548 1173.8 362.017C1173.8 362.434 1173.95 362.763 1174.25 363.004C1174.56 363.246 1175.03 363.447 1175.67 363.608L1177.29 364.006C1178.27 364.242 1179 364.605 1179.47 365.092C1179.95 365.575 1180.19 366.198 1180.19 366.96C1180.19 367.585 1180.01 368.144 1179.65 368.636C1179.3 369.129 1178.8 369.517 1178.16 369.801C1177.52 370.085 1176.78 370.227 1175.93 370.227C1174.82 370.227 1173.9 369.986 1173.17 369.503C1172.44 369.02 1171.98 368.314 1171.78 367.386L1173.37 366.989C1173.52 367.576 1173.81 368.016 1174.23 368.31C1174.66 368.603 1175.21 368.75 1175.9 368.75C1176.68 368.75 1177.3 368.584 1177.76 368.253C1178.23 367.917 1178.46 367.514 1178.46 367.045C1178.46 366.667 1178.33 366.349 1178.06 366.094C1177.79 365.833 1177.39 365.639 1176.84 365.511L1175.02 365.085C1174.02 364.848 1173.29 364.482 1172.82 363.984C1172.35 363.482 1172.12 362.855 1172.12 362.102C1172.12 361.487 1172.3 360.942 1172.64 360.469C1172.99 359.995 1173.47 359.624 1174.07 359.354C1174.67 359.084 1175.36 358.949 1176.13 358.949C1177.21 358.949 1178.06 359.186 1178.67 359.659C1179.29 360.133 1179.73 360.758 1179.99 361.534ZM1182.71 374.091V359.091H1184.33V360.824H1184.53C1184.66 360.634 1184.83 360.393 1185.04 360.099C1185.27 359.801 1185.58 359.536 1186 359.304C1186.41 359.067 1186.98 358.949 1187.69 358.949C1188.6 358.949 1189.41 359.179 1190.11 359.638C1190.82 360.097 1191.36 360.748 1191.75 361.591C1192.15 362.434 1192.34 363.428 1192.34 364.574C1192.34 365.729 1192.15 366.731 1191.75 367.578C1191.36 368.421 1190.82 369.074 1190.12 369.538C1189.43 369.998 1188.62 370.227 1187.71 370.227C1187.01 370.227 1186.45 370.111 1186.03 369.879C1185.61 369.643 1185.28 369.375 1185.06 369.077C1184.83 368.774 1184.66 368.523 1184.53 368.324H1184.39V374.091H1182.71ZM1184.36 364.545C1184.36 365.369 1184.48 366.096 1184.72 366.726C1184.97 367.351 1185.32 367.841 1185.78 368.196C1186.25 368.546 1186.81 368.722 1187.49 368.722C1188.19 368.722 1188.77 368.537 1189.24 368.168C1189.71 367.794 1190.07 367.292 1190.31 366.662C1190.55 366.027 1190.67 365.322 1190.67 364.545C1190.67 363.778 1190.55 363.087 1190.31 362.472C1190.08 361.851 1189.73 361.361 1189.25 361.001C1188.79 360.637 1188.2 360.455 1187.49 360.455C1186.8 360.455 1186.23 360.627 1185.77 360.973C1185.3 361.314 1184.95 361.792 1184.72 362.408C1184.48 363.018 1184.36 363.731 1184.36 364.545ZM1199.99 355.455V370H1198.23V357.301H1198.14L1194.59 359.659V357.869L1198.23 355.455H1199.99ZM1208.32 370.227C1207.41 370.227 1206.61 369.998 1205.91 369.538C1205.21 369.074 1204.67 368.421 1204.28 367.578C1203.88 366.731 1203.69 365.729 1203.69 364.574C1203.69 363.428 1203.88 362.434 1204.28 361.591C1204.67 360.748 1205.22 360.097 1205.92 359.638C1206.62 359.179 1207.43 358.949 1208.35 358.949C1209.06 358.949 1209.62 359.067 1210.03 359.304C1210.45 359.536 1210.76 359.801 1210.98 360.099C1211.2 360.393 1211.38 360.634 1211.5 360.824H1211.64V355.455H1213.32V370H1211.7V368.324H1211.5C1211.38 368.523 1211.2 368.774 1210.97 369.077C1210.75 369.375 1210.42 369.643 1210 369.879C1209.58 370.111 1209.02 370.227 1208.32 370.227ZM1208.54 368.722C1209.22 368.722 1209.79 368.546 1210.25 368.196C1210.71 367.841 1211.07 367.351 1211.31 366.726C1211.55 366.096 1211.67 365.369 1211.67 364.545C1211.67 363.731 1211.55 363.018 1211.31 362.408C1211.08 361.792 1210.73 361.314 1210.26 360.973C1209.8 360.627 1209.23 360.455 1208.54 360.455C1207.83 360.455 1207.24 360.637 1206.77 361.001C1206.3 361.361 1205.95 361.851 1205.71 362.472C1205.48 363.087 1205.36 363.778 1205.36 364.545C1205.36 365.322 1205.48 366.027 1205.72 366.662C1205.96 367.292 1206.31 367.794 1206.78 368.168C1207.26 368.537 1207.84 368.722 1208.54 368.722ZM1221.14 370.199C1220.3 370.199 1219.55 370.033 1218.89 369.702C1218.22 369.37 1217.68 368.916 1217.28 368.338C1216.88 367.76 1216.66 367.102 1216.62 366.364H1218.32C1218.39 367.022 1218.69 367.566 1219.22 367.997C1219.75 368.423 1220.39 368.636 1221.14 368.636C1221.73 368.636 1222.26 368.497 1222.73 368.217C1223.2 367.938 1223.56 367.554 1223.83 367.067C1224.1 366.574 1224.23 366.018 1224.23 365.398C1224.23 364.763 1224.09 364.197 1223.81 363.7C1223.54 363.198 1223.16 362.803 1222.68 362.514C1222.2 362.225 1221.64 362.079 1221.02 362.074C1220.58 362.069 1220.12 362.138 1219.65 362.28C1219.18 362.417 1218.8 362.595 1218.5 362.812L1216.85 362.614L1217.73 355.455H1225.28V357.017H1219.21L1218.69 361.307H1218.78C1219.08 361.07 1219.45 360.874 1219.9 360.717C1220.35 360.561 1220.82 360.483 1221.31 360.483C1222.2 360.483 1222.99 360.696 1223.69 361.122C1224.39 361.544 1224.94 362.121 1225.33 362.855C1225.74 363.589 1225.94 364.427 1225.94 365.369C1225.94 366.297 1225.73 367.126 1225.31 367.855C1224.9 368.58 1224.33 369.152 1223.61 369.574C1222.88 369.991 1222.06 370.199 1221.14 370.199ZM1228.79 370V359.091H1230.41V360.739H1230.52C1230.72 360.199 1231.08 359.761 1231.6 359.425C1232.12 359.089 1232.71 358.92 1233.36 358.92C1233.48 358.92 1233.64 358.923 1233.82 358.928C1234.01 358.932 1234.15 358.939 1234.24 358.949V360.653C1234.19 360.639 1234.06 360.618 1233.85 360.589C1233.65 360.556 1233.44 360.54 1233.22 360.54C1232.69 360.54 1232.22 360.651 1231.8 360.874C1231.39 361.091 1231.06 361.394 1230.82 361.783C1230.58 362.166 1230.46 362.604 1230.46 363.097V370H1228.79Z" fill="white"/>
</g>
<defs>
<linearGradient id="paint0_linear_308_3616" x1="637" y1="0" x2="637" y2="401" gradientUnits="userSpaceOnUse">
<stop/>
<stop offset="1" stop-color="#09020F"/>
</linearGradient>
<clipPath id="clip0_308_3616">
<rect width="1274" height="401" fill="white"/>
</clipPath>
</defs>
</svg>
