<svg width="109" height="109" viewBox="0 0 109 109" fill="none" xmlns="http://www.w3.org/2000/svg">
<g clip-path="url(#clip0_1_24)">
<path d="M87.7016 47.8551C86.3187 47.8551 84.9508 47.9876 83.6087 48.2505C82.9964 31.7688 69.3969 18.5491 52.7681 18.5491C37.4761 18.5491 24.537 29.8636 22.2671 44.7375C9.93791 45.0388 0 55.1625 0 67.5629C0 80.1525 10.2423 90.3948 22.832 90.3948H41.9337C43.3783 90.3948 44.5488 89.2243 44.5488 87.7797C44.5488 86.3351 43.3783 85.1645 41.9337 85.1645H22.832C13.1263 85.1645 5.23029 77.2685 5.23029 67.5629C5.23029 57.8572 13.1266 49.9612 22.832 49.9612C23.3086 49.9612 23.8128 49.9845 24.3728 50.033L27.0228 50.2624L27.2073 47.6089C28.1351 34.2466 39.3628 23.7794 52.7681 23.7794C66.9014 23.7794 78.4 35.278 78.4 49.4113C78.4 50.0609 78.369 50.7555 78.3052 51.5341L77.9624 55.7072L81.8628 54.1845C83.7304 53.4553 85.6949 53.0857 87.7022 53.0857C96.562 53.0857 103.77 60.2938 103.77 69.1535C103.77 78.013 96.562 85.221 87.7022 85.221C87.4693 85.221 80.5165 85.2071 73.592 85.1931C66.718 85.1792 59.8722 85.1652 59.6449 85.1652C58.0172 85.1652 57.1664 84.3814 57.1155 82.8357V54.6064L59.9534 57.9771C60.8834 59.0824 62.5334 59.224 63.638 58.2934C64.743 57.3634 64.8846 55.7138 63.9543 54.6088L57.665 47.1375C56.8728 46.1964 55.7343 45.6566 54.5415 45.6566C53.3486 45.6566 52.2102 46.1964 51.4183 47.1375L45.1291 54.6088C44.1988 55.7138 44.3403 57.3634 45.4453 58.2934C45.9359 58.7066 46.5336 58.9081 47.1281 58.9081C47.8732 58.9081 48.6128 58.5915 49.1299 57.9771L51.8849 54.7043V82.8611C51.8849 85.8898 53.9515 90.3952 59.6445 90.3952C59.8719 90.3952 66.7124 90.4091 73.5808 90.4227C80.5106 90.437 87.4686 90.451 87.7019 90.451C99.446 90.451 109 80.8969 109 69.1532C109 57.4091 99.4456 47.8551 87.7016 47.8551Z" fill="white"/>
</g>
<defs>
<clipPath id="clip0_1_24">
<rect width="109" height="109" fill="white"/>
</clipPath>
</defs>
</svg>
